<svg version="1.2" xmlns="http://www.w3.org/2000/svg" viewBox="0 0 66 64" width="66" height="64"><defs><linearGradient id="P" gradientUnits="userSpaceOnUse"/><linearGradient id="g1" x1=".5" y1="-0.3" x2="54.9" y2="-0.3" href="#P"><stop offset="0" stop-color="#5a4ba7"/><stop offset="1" stop-color="#fff"/></linearGradient><linearGradient id="g2" x1="27.3" y1="62.4" x2="20.1" y2="-37.2" href="#P"><stop offset="0" stop-color="#5a4ba7"/><stop offset="1" stop-color="#fff"/></linearGradient><linearGradient id="g3" x1="43.8" y1="7.7" x2="47.5" y2="19.7" href="#P"><stop offset="0" stop-color="#5a4ba7"/><stop offset="1" stop-color="#fff"/></linearGradient><linearGradient id="g4" x1="30.5" y1="24.7" x2="47.6" y2="44.1" href="#P"><stop offset="0" stop-color="#5a4ba7"/><stop offset="1" stop-color="#fff"/></linearGradient><linearGradient id="g5" x1="30.6" y1="25.5" x2="46.2" y2="43.2" href="#P"><stop offset="0" stop-color="#5a4ba7"/><stop offset="1" stop-color="#fff"/></linearGradient><linearGradient id="g6" x1="51.4" y1="17" x2="49.6" y2="10.2" href="#P"><stop offset="0" stop-color="#7d84c4"/><stop offset="1" stop-color="#fff"/></linearGradient><linearGradient id="g7" x1="23.2" y1="27" x2="39" y2="65.3" href="#P"><stop offset="0" stop-color="#5a4ba7"/><stop offset="1" stop-color="#fff"/></linearGradient><linearGradient id="g8" x1="22.9" y1="28" x2="37.3" y2="62.9" href="#P"><stop offset="0" stop-color="#5a4ba7"/><stop offset="1" stop-color="#fff"/></linearGradient><linearGradient id="g9" x1="50.2" y1="32.8" x2="51.7" y2="38.8" href="#P"><stop offset="0" stop-color="#5a4ba7"/><stop offset="1" stop-color="#fff"/></linearGradient><linearGradient id="g10" x1="50" y1="33.2" x2="51.3" y2="38.7" href="#P"><stop offset="0" stop-color="#5a4ba7"/><stop offset="1" stop-color="#fff"/></linearGradient><linearGradient id="g11" x1="21.1" y1="13.6" x2="21.1" y2="27.4" href="#P"><stop offset="0" stop-color="#5a4ba7"/><stop offset="1" stop-color="#fff"/></linearGradient><linearGradient id="g12" x1="60.4" y1="60" x2="53.3" y2="-39.6" href="#P"><stop offset="0" stop-color="#5a4ba7"/><stop offset="1" stop-color="#fff"/></linearGradient><linearGradient id="g13" x1="13.2" y1="20.5" x2="65.4" y2="20.5" href="#P"><stop offset="0" stop-color="#5a4ba7"/><stop offset="1" stop-color="#fff"/></linearGradient></defs><style>.a{opacity:.1;mix-blend-mode:multiply;fill:url(#g1)}.b{fill:#dddffd}.c{opacity:.1;mix-blend-mode:multiply;fill:url(#g2)}.d{fill:url(#g3)}.e{opacity:.3;fill:none;stroke:#000;stroke-width:.4}.f{fill:url(#g4)}.g{opacity:.3;fill:url(#g5)}.h{opacity:.3;mix-blend-mode:multiply;fill:url(#g6)}.i{fill:url(#g7)}.j{opacity:.3;fill:url(#g8)}.k{fill:url(#g9)}.l{opacity:.3;fill:url(#g10)}.m{fill:url(#g11)}.n{opacity:.1;mix-blend-mode:multiply;fill:url(#g12)}.o{opacity:.1;mix-blend-mode:multiply;fill:url(#g13)}</style><path class="a" d="m54.9 7.5q-1.7 1.5-3.1 3.1c-3.1 3.5-5.7 7.2-8.8 10.6-1.4 1.5-3 2.9-4.8 3.7-5.3 2.4-11.3-0.5-17.1 0-5.3 0.4-9.9 3.5-14.5 6.3-1.9 1.1-3.9 2.2-6 3q-0.1-1.3-0.1-2.7c0-6.1 1.7-11.8 4.7-16.7 3.5-0.7 7.3-0.6 10.9-0.1 2.6 0.4 5.3 1 7.8 0.4 2.1-0.4 3.9-1.5 5.6-2.7 3.6-2.8 6.5-6.3 10.4-8.5 1.8-1 3.8-1.7 5.8-2.2 3.4 1.4 6.5 3.4 9.2 5.8z"/><path class="b" d="m19.1 2.2q1.9-0.9 3.9-1.6 0.1 0.3 0.1 0.6c0 1.2-0.9 2.2-2.1 2.2-0.8 0-1.6-0.5-1.9-1.2z"/><path class="c" d="m35.2 63.9q-1.1 0.1-2.2 0.1-2 0-3.9-0.2c0-1.7 1-3.4 3.1-3.4 2.2 0 3.2 1.8 3 3.5z"/><g style="opacity:.2;mix-blend-mode:overlay"><circle class="d" cx="41.4" cy="14.6" r="2.1"/><path class="e" d="m40 16.1c-0.8-0.8-0.8-2.1 0-2.9 0.8-0.8 2.1-0.8 2.9 0 0.8 0.8 0.8 2.1 0 2.9-0.8 0.8-2.1 0.8-2.9 0z"/></g><circle class="f" cx="32.7" cy="32.8" r="1.5"/><path class="g" d="m31.7 33.9c-0.6-0.6-0.6-1.5 0-2.1 0.5-0.6 1.5-0.6 2.1 0 0.6 0.6 0.6 1.5 0 2.1-0.6 0.6-1.6 0.6-2.1 0z"/><path class="h" d="m57.5 12.1q-0.1 0.1-0.2 0.2-0.1 0.1-0.2 0.1 0 0.1-0.1 0.1-0.1 0.1-0.2 0.1 0 0.1-0.1 0.1-0.1 0.1-0.2 0.1 0 0-0.1 0.1-0.1 0-0.2 0 0 0-0.1 0.1-0.1 0-0.2 0-0.1 0-0.2 0.1-0.1 0-0.1 0-0.1 0-0.2 0-0.2 0-0.3 0-0.2 0-0.4 0-0.1 0-0.1 0-0.1 0-0.2 0-0.1-0.1-0.2-0.1-0.1 0-0.1 0-0.1-0.1-0.2-0.1-0.1 0-0.2 0 0-0.1-0.1-0.1-0.1 0-0.2-0.1 0 0-0.1-0.1-0.1 0-0.2-0.1 0 0-0.1-0.1-0.1 0-0.1-0.1-0.2-0.1-0.3-0.2-0.1-0.1-0.2-0.2-0.1-0.1-0.1-0.2-0.1 0-0.1-0.1-0.1-0.1-0.1-0.2-0.1 0-0.1-0.1 0-0.1-0.1-0.2 0 0 0-0.1-0.1-0.1-0.1-0.2 0-0.1-0.1-0.1 0-0.1 0-0.2 0-0.1 0-0.2 0-0.1-0.1-0.2 0 0 0-0.1 0-0.2 0-0.3 0-0.2 0-0.4 0-0.1 0-0.1 0.1-0.1 0.1-0.2 0-0.1 0-0.2 0-0.1 0-0.1 0.1-0.1 0.1-0.2 0-0.1 0.1-0.2 0 0 0-0.1 0.1-0.1 0.1-0.2 0 0 0.1-0.1 0-0.1 0.1-0.2 0 0 0.1-0.1 0-0.1 0.1-0.1 0.1-0.2 0.2-0.3 0.1-0.1 0.3-0.2 0-0.1 0.1-0.1 0.1-0.1 0.1-0.1 0.1-0.1 0.2-0.1 0.1-0.1 0.1-0.1 0.1 0 0.2-0.1 0 0 0 0 2.6 2.1 4.6 4.6 0 0 0 0 0 0.1-0.1 0.2 0 0.1-0.1 0.1 0 0.1-0.1 0.2 0 0.1-0.1 0.1 0 0.1-0.1 0.2-0.1 0.1-0.2 0.2z"/><circle class="i" cx="19.1" cy="38.2" r="5.4"/><path class="j" d="m15.3 42c-2.1-2.1-2.1-5.5 0-7.6 2.1-2.1 5.5-2.1 7.6 0 2.1 2.1 2.1 5.5 0 7.6-2.1 2.1-5.5 2.1-7.6 0z"/><g style="mix-blend-mode:multiply"><circle class="k" cx="47.3" cy="37.7" r="1.8"/><path class="l" d="m46 39c-0.7-0.7-0.7-1.9 0-2.6 0.7-0.7 1.8-0.7 2.5 0 0.7 0.7 0.7 1.9 0 2.6-0.7 0.7-1.8 0.7-2.5 0z"/></g><circle class="m" cx="17" cy="19.3" r="2.1"/><path class="e" d="m15.6 20.7c-0.8-0.8-0.8-2.1 0-2.9 0.8-0.8 2.1-0.8 2.9 0 0.8 0.8 0.8 2.1 0 2.9-0.8 0.9-2.1 0.9-2.9 0z"/><path class="n" d="m64.6 38.8q-0.8 3.6-2.4 6.8c-0.6-0.7-1-1.7-1-2.7 0-2 1.5-3.7 3.4-4.1z"/><path class="o" d="m65.4 29.4q-0.9 0.3-1.8 0.7c-6.9 3.1-11 10.1-14.4 16.8-0.5 1.2-1.1 2.4-2.1 3.2-0.7 0.6-1.6 1-2.5 1.3-2.9 1.1-6 1.3-8.9 2.4-4.4 1.6-8.1 5.1-10 9.4-4.6-1.1-8.8-3.1-12.5-5.9 1-2.6 2.7-5 4.8-6.9q2.1-1.8 4.6-3.1c5.3-2.9 11.3-3.9 17-5.5 3.1-0.9 6.2-2 8.4-4.3 1.8-2 2.8-4.6 4.3-6.9 2.2-3.4 5.7-5.8 9.4-7.3q1.2-0.4 2.5-0.8 0.9 3.3 1.2 6.9z"/></svg>