<svg version="1.2" xmlns="http://www.w3.org/2000/svg" viewBox="0 0 115 115" width="115" height="115"><defs><linearGradient id="P" gradientUnits="userSpaceOnUse"/><linearGradient id="g1" x1="49.5" y1="185.4" x2="-10.3" y2="71.9" href="#P"><stop offset="0" stop-color="#2851ab"/><stop offset="1" stop-color="#7d84c4"/></linearGradient><linearGradient id="g2" x1="23.7" y1="-1.5" x2="114.1" y2="-1.5" href="#P"><stop offset="0" stop-color="#e0e5f3"/><stop offset="1" stop-color="#7d84c4"/></linearGradient><linearGradient id="g3" x1="115.7" y1="11.6" x2="117.5" y2="110.5" href="#P"><stop offset="0" stop-color="#2851ab"/><stop offset="1" stop-color="#7d84c4"/></linearGradient><linearGradient id="g4" x1="18.7" y1="18.6" x2="27.7" y2="10.2" href="#P"><stop offset="0" stop-color="#2851ab"/><stop offset="1" stop-color="#7d84c4"/></linearGradient><linearGradient id="g5" x1="49.4" y1="96.4" x2="65.9" y2="80.9" href="#P"><stop offset="0" stop-color="#2851ab"/><stop offset="1" stop-color="#7d84c4"/></linearGradient><linearGradient id="g6" x1="62.7" y1="29.3" x2="74.2" y2="18.5" href="#P"><stop offset="0" stop-color="#2851ab"/><stop offset="1" stop-color="#7d84c4"/></linearGradient><linearGradient id="g7" x1="60" y1="138.1" x2="47.3" y2="110.3" href="#P"><stop offset="0" stop-color="#2851ab"/><stop offset="1" stop-color="#7d84c4"/></linearGradient><linearGradient id="g8" x1="48.5" y1="90.2" x2="25.8" y2="86.6" href="#P"><stop offset="0" stop-color="#2851ab"/><stop offset="1" stop-color="#7d84c4"/></linearGradient><linearGradient id="g9" x1="58.4" y1="36.9" x2="35.7" y2="33.3" href="#P"><stop offset="0" stop-color="#2851ab"/><stop offset="1" stop-color="#7d84c4"/></linearGradient><linearGradient id="g10" x1="66.3" y1="58.8" x2="56.5" y2="57.3" href="#P"><stop offset="0" stop-color="#2851ab"/><stop offset="1" stop-color="#7d84c4"/></linearGradient><linearGradient id="g11" x1="75.9" y1="18.1" x2="72.4" y2="17.6" href="#P"><stop offset="0" stop-color="#2851ab"/><stop offset="1" stop-color="#7d84c4"/></linearGradient><linearGradient id="g12" x1="53" y1="3.6" x2="55.5" y2="3.6" href="#P"><stop offset="0" stop-color="#e0e5f3"/><stop offset="1" stop-color="#7d84c4"/></linearGradient><linearGradient id="g13" x1="53.1" y1="3.7" x2="55.4" y2="3.7" href="#P"><stop offset="0" stop-color="#e0e5f3"/><stop offset="1" stop-color="#7d84c4"/></linearGradient><linearGradient id="g14" x1="91.6" y1="31.6" x2="88.5" y2="19.7" href="#P"><stop offset="0" stop-color="#e0e5f3"/><stop offset="1" stop-color="#7d84c4"/></linearGradient><linearGradient id="g15" x1="55.6" y1="78.2" x2="28.4" y2="48.1" href="#P"><stop offset="0" stop-color="#e0e5f3"/><stop offset="1" stop-color="#7d84c4"/></linearGradient><linearGradient id="g16" x1="54.5" y1="75.6" x2="29.7" y2="48.2" href="#P"><stop offset="0" stop-color="#e0e5f3"/><stop offset="1" stop-color="#7d84c4"/></linearGradient><linearGradient id="g17" x1="30.5" y1="47.9" x2="20.7" y2="46.3" href="#P"><stop offset="0" stop-color="#2851ab"/><stop offset="1" stop-color="#7d84c4"/></linearGradient><linearGradient id="g18" x1="85.5" y1="92.6" x2="70.2" y2="84" href="#P"><stop offset="0" stop-color="#2851ab"/><stop offset="1" stop-color="#7d84c4"/></linearGradient><linearGradient id="g19" x1="107.6" y1="66.6" x2="71.5" y2="60.9" href="#P"><stop offset="0" stop-color="#2851ab"/><stop offset="1" stop-color="#7d84c4"/></linearGradient><clipPath clipPathUnits="userSpaceOnUse" id="cp1"><path d="m114.87 57.46c0 31.48-25.51 56.99-56.99 56.99-31.47 0-56.98-25.51-56.98-56.99 0-31.47 25.51-56.98 56.98-56.98 31.48 0 56.99 25.51 56.99 56.98z"/></clipPath><linearGradient id="g20" x1="15.6" y1="78.5" x2="-6.8" y2="75" href="#P"><stop offset="0" stop-color="#2851ab"/><stop offset="1" stop-color="#7d84c4"/></linearGradient></defs><style>.a{fill:url(#g1)}.b{opacity:.3;fill:url(#g2)}.c{fill:#302b84}.d{opacity:.1;mix-blend-mode:multiply;fill:url(#g3)}.e{fill:url(#g4)}.f{fill:url(#g5)}.g{fill:url(#g6)}.h{fill:url(#g7)}.i{fill:url(#g8)}.j{opacity:.3;fill:none;stroke:#000;stroke-width:.8}.k{fill:url(#g9)}.l{fill:url(#g10)}.m{opacity:.3;fill:none;stroke:#000;stroke-width:.4}.n{fill:url(#g11)}.o{fill:url(#g12)}.p{opacity:.3;fill:url(#g13)}.q{opacity:.3;fill:url(#g14)}.r{fill:url(#g15)}.s{opacity:.3;fill:url(#g16)}.t{fill:url(#g17)}.u{fill:url(#g18)}.v{fill:url(#g19)}.w{opacity:.3;fill:none;stroke:#000;stroke-width:1.3}.x{fill:url(#g20)}</style><circle class="a" cx="57.9" cy="57.5" r="57"/><path class="b" d="m110.8 50.4c-8.8 5-19.7 6.2-29.1 2.6-16.2-6-24.9-23.6-39.2-33.5q-0.8-0.6-1.7-1.2-3.8-2.3-7.9-4-4.2-1.6-8.6-2.4-0.3 0-0.6-0.1c9.6-7.1 21.4-11.3 34.2-11.3 28.3 0 51.8 20.6 56.2 47.7q-1.6 1.2-3.3 2.2z"/><path class="c" d="m33.5 6q3.3-1.6 6.9-2.8 0.2 0.5 0.2 1c0 2.1-1.7 3.8-3.8 3.8-1.4 0-2.7-0.8-3.3-2z"/><path class="d" d="m57.9 114.5c-31.5 0-57-25.6-57-57 0-9.9 2.5-19.3 7-27.4-1.1 5.9-1.7 11.8-1.4 17.8 0.4 10.9 4 22 11.4 30.1 5.1 5.5 11.9 9.4 18.8 12.3 12.1 5 25.6 7.4 38.2 4 12-3.2 22-11.3 30.4-20.4 3.2-3.6 6.3-7.4 9.3-11.2-2.6 29-27 51.8-56.7 51.8z"/><path class="e" d="m25.8 16.7c-3 0-3 4.7 0 4.7 3 0 3-4.7 0-4.7z"/><path class="f" d="m61.5 91.8c-5.5 0-5.5 8.6 0 8.6 5.5 0 5.6-8.6 0-8.6z"/><path class="g" d="m71.5 26.5c-3.9 0-3.9 6 0 6 3.8 0 3.8-6 0-6z"/><path class="h" d="m61.9 114.3q-2 0.1-4 0.2-3.4-0.1-6.8-0.5c-0.1-2.8 1.7-5.8 5.4-5.8 3.8 0 5.6 3.2 5.4 6.1z"/><circle class="i" cx="38.3" cy="77.4" r="8.4"/><path class="j" d="m32.3 83.4c-3.3-3.3-3.3-8.6 0-11.9 3.3-3.3 8.6-3.3 11.9 0 3.3 3.3 3.3 8.6 0 11.9-3.3 3.3-8.6 3.3-11.9 0z"/><circle class="k" cx="48.1" cy="24.1" r="8.4"/><path class="j" d="m42.2 30c-3.3-3.2-3.3-8.6 0-11.8 3.2-3.3 8.6-3.3 11.8 0 3.3 3.2 3.3 8.6 0 11.8-3.2 3.3-8.6 3.3-11.8 0z"/><circle class="l" cx="62" cy="52.2" r="3.6"/><path class="m" d="m59.5 54.8c-1.4-1.5-1.4-3.8 0-5.2 1.4-1.4 3.7-1.4 5.1 0 1.4 1.4 1.4 3.7 0 5.2-1.4 1.4-3.7 1.4-5.1 0z"/><circle class="n" cx="74.6" cy="14.5" r="1.3"/><path class="m" d="m73.7 15.4c-0.5-0.5-0.5-1.3 0-1.8 0.5-0.5 1.3-0.5 1.8 0 0.5 0.5 0.5 1.3 0 1.8-0.5 0.5-1.3 0.5-1.8 0z"/><circle class="o" cx="54.3" cy="6.9" r="1.3"/><path class="p" d="m53.4 7.8c-0.5-0.5-0.5-1.4 0-1.9 0.5-0.5 1.3-0.5 1.8 0 0.5 0.5 0.5 1.4 0 1.9-0.5 0.5-1.3 0.5-1.8 0z"/><path class="q" d="m101 23.4q-0.3 0.2-0.5 0.4-0.1 0-0.2 0.1-0.1 0.1-0.3 0.2-0.1 0.1-0.2 0.2-0.2 0.1-0.3 0.1-0.1 0.1-0.3 0.2-0.1 0-0.2 0.1-0.2 0-0.3 0.1-0.1 0-0.3 0.1-0.1 0-0.3 0-0.1 0.1-0.3 0.1-0.1 0.1-0.3 0.1-0.1 0-0.2 0-0.3 0-0.6 0-0.4 0-0.6 0-0.2 0-0.3 0-0.2 0-0.3-0.1-0.2 0-0.3-0.1-0.2 0-0.3 0-0.2-0.1-0.3-0.1-0.1-0.1-0.3-0.1-0.1-0.1-0.2-0.1-0.2-0.1-0.3-0.2-0.1 0-0.3-0.1-0.1-0.1-0.2-0.2-0.2-0.1-0.3-0.2-0.1-0.1-0.2-0.1-0.2-0.2-0.4-0.4-0.3-0.3-0.5-0.5 0-0.1-0.1-0.2-0.1-0.1-0.2-0.3-0.1-0.1-0.2-0.2 0-0.1-0.1-0.3-0.1-0.1-0.1-0.3-0.1-0.1-0.2-0.2 0-0.1-0.1-0.3 0-0.1-0.1-0.3 0-0.1 0-0.3-0.1-0.1-0.1-0.3 0-0.1-0.1-0.3 0-0.1 0-0.2 0-0.3 0-0.6 0-0.3 0-0.6 0-0.2 0-0.3 0.1-0.2 0.1-0.3 0-0.2 0.1-0.3 0-0.2 0-0.3 0.1-0.1 0.1-0.3 0.1-0.1 0.1-0.3 0.1-0.1 0.2-0.2 0-0.2 0.1-0.3 0.1-0.1 0.1-0.3 0.1-0.1 0.2-0.2 0.1-0.1 0.2-0.3 0.1-0.1 0.1-0.2 0.2-0.2 0.5-0.4 0.2-0.3 0.4-0.4 0.1-0.1 0.2-0.2 0.1-0.1 0.3-0.2 0.1-0.1 0.2-0.2 0.2 0 0.3-0.1 0.1-0.1 0.3-0.1 0-0.1 0.1-0.1 4.4 3.7 8 8.1 0 0-0.1 0.1 0 0.1-0.1 0.2-0.1 0.2-0.1 0.3-0.1 0.1-0.2 0.2-0.1 0.2-0.2 0.3-0.1 0.1-0.1 0.2-0.2 0.2-0.4 0.5z"/><circle class="r" cx="40.6" cy="51.5" r="4.3"/><path class="s" d="m37.5 54.6c-1.6-1.7-1.6-4.4 0-6.1 1.7-1.7 4.4-1.7 6.1 0 1.7 1.7 1.7 4.4 0 6.1-1.7 1.6-4.4 1.6-6.1 0z"/><circle class="t" cx="26.2" cy="41.3" r="3.6"/><path class="m" d="m23.7 43.8c-1.4-1.4-1.4-3.7 0-5.1 1.4-1.4 3.7-1.4 5.1 0 1.4 1.4 1.4 3.7 0 5.1-1.4 1.4-3.7 1.4-5.1 0z"/><path class="u" d="m87.6 73.9c3.6 2.7 4.4 7.7 1.7 11.3-2.7 3.6-7.7 4.3-11.3 1.6-3.5-2.6-4.3-7.7-1.6-11.2 2.6-3.6 7.7-4.3 11.2-1.7z"/><path class="j" d="m84 88.3c-4.4 0.7-8.5-2.4-9.1-6.8-0.7-4.4 2.4-8.5 6.8-9.1 4.4-0.6 8.5 2.4 9.1 6.8 0.6 4.4-2.4 8.5-6.8 9.1z"/><circle class="v" cx="91.1" cy="47.5" r="13.3"/><path class="w" d="m81.7 56.9c-5.3-5.2-5.3-13.6 0-18.9 5.2-5.2 13.6-5.2 18.8 0 5.2 5.3 5.2 13.7 0 18.9-5.2 5.2-13.6 5.2-18.8 0z"/><path class="c" d="m113.4 70.2c-0.9 4.2-2.3 8.2-4.2 12-1.1-1.3-1.7-2.9-1.7-4.8 0-3.5 2.5-6.5 5.9-7.2z"/><g clip-path="url(#cp1)"><circle class="x" cx="5.5" cy="65.9" r="8.3"/><path class="j" d="m-0.4 71.7c-3.2-3.2-3.2-8.4 0-11.7 3.3-3.2 8.5-3.2 11.7 0 3.3 3.3 3.3 8.5 0 11.7-3.2 3.3-8.4 3.3-11.7 0z"/></g></svg>