<svg version="1.2" xmlns="http://www.w3.org/2000/svg" viewBox="0 0 66 65" width="66" height="65"><defs><linearGradient id="P" gradientUnits="userSpaceOnUse"/><linearGradient id="g1" x1="13.5" y1="-1.9" x2="65" y2="-1.9" href="#P"><stop offset="0" stop-color="#7d84c4"/><stop offset="1" stop-color="#fff"/></linearGradient><linearGradient id="g2" x1="66.8" y1="6.4" x2="67.8" y2="62.7" href="#P"><stop offset="0" stop-color="#5a4ba7"/><stop offset="1" stop-color="#fff"/></linearGradient></defs><style>.a{opacity:.3;fill:url(#g1)}.b{opacity:.1;mix-blend-mode:multiply;fill:url(#g2)}</style><path class="a" d="m63.1 28.5c-5 2.9-11.2 3.5-16.6 1.5-9.2-3.5-14.2-13.5-22.3-19.1q-0.4-0.4-0.9-0.7-2.2-1.3-4.6-2.2-2.3-0.9-4.8-1.4-0.2 0-0.4-0.1c5.4-4 12.2-6.4 19.5-6.4 16.1 0 29.5 11.7 32 27.2q-0.9 0.7-1.9 1.2z"/><path class="b" d="m33 65c-18 0-32.5-14.5-32.5-32.5 0-5.6 1.5-10.9 4-15.5-0.6 3.3-1 6.7-0.8 10.1 0.2 6.2 2.3 12.5 6.5 17.1 2.9 3.2 6.8 5.4 10.7 7 6.9 2.9 14.6 4.3 21.8 2.3 6.8-1.8 12.5-6.4 17.3-11.6 1.8-2.1 3.6-4.2 5.3-6.4-1.5 16.5-15.4 29.5-32.3 29.5z"/></svg>